<svg xmlns="http://www.w3.org/2000/svg" width="914" height="420" viewBox="0 0 914 420">
<rect width="100%" height="100%" fill="#ffffff"/>
<text x="72" y="36" font-family="sans-serif" font-size="22" font-weight="700">EXP-005 DB Delay p95 Write Latency</text>
<text x="72" y="64" font-family="sans-serif" font-size="12" fill="#555">ms</text>
<line x1="72" y1="308" x2="882" y2="308" stroke="#222"/>
<line x1="72" y1="82" x2="72" y2="308" stroke="#222"/>
<rect x="89.0" y="304.0" width="56.0" height="4.0" fill="#2f6f73"/>
<text x="117.0" y="296.0" text-anchor="middle" font-family="sans-serif" font-size="11">2.00</text>
<text x="117.0" y="326" text-anchor="middle" font-family="sans-serif" font-size="10">postgres</text>
<text x="117.0" y="342" text-anchor="middle" font-family="sans-serif" font-size="9" fill="#555">dbdelay-pg 0</text>
<rect x="179.0" y="92.0" width="56.0" height="216.0" fill="#2f6f73"/>
<text x="207.0" y="84.0" text-anchor="middle" font-family="sans-serif" font-size="11">107.00</text>
<text x="207.0" y="326" text-anchor="middle" font-family="sans-serif" font-size="10">postgres</text>
<text x="207.0" y="342" text-anchor="middle" font-family="sans-serif" font-size="9" fill="#555">dbdelay-pg 100</text>
<rect x="269.0" y="245.3" width="56.0" height="62.7" fill="#2f6f73"/>
<text x="297.0" y="237.3" text-anchor="middle" font-family="sans-serif" font-size="11">31.05</text>
<text x="297.0" y="326" text-anchor="middle" font-family="sans-serif" font-size="10">postgres</text>
<text x="297.0" y="342" text-anchor="middle" font-family="sans-serif" font-size="9" fill="#555">dbdelay-pg 25</text>
<rect x="359.0" y="303.9" width="56.0" height="4.1" fill="#2f6f73"/>
<text x="387.0" y="295.9" text-anchor="middle" font-family="sans-serif" font-size="11">2.05</text>
<text x="387.0" y="326" text-anchor="middle" font-family="sans-serif" font-size="10">rabbitmq</text>
<text x="387.0" y="342" text-anchor="middle" font-family="sans-serif" font-size="9" fill="#555">dbdelay-rmq 0</text>
<rect x="449.0" y="98.1" width="56.0" height="209.9" fill="#2f6f73"/>
<text x="477.0" y="90.1" text-anchor="middle" font-family="sans-serif" font-size="11">104.00</text>
<text x="477.0" y="326" text-anchor="middle" font-family="sans-serif" font-size="10">rabbitmq</text>
<text x="477.0" y="342" text-anchor="middle" font-family="sans-serif" font-size="9" fill="#555">dbdelay-rmq 100</text>
<rect x="539.0" y="249.5" width="56.0" height="58.5" fill="#2f6f73"/>
<text x="567.0" y="241.5" text-anchor="middle" font-family="sans-serif" font-size="11">29.00</text>
<text x="567.0" y="326" text-anchor="middle" font-family="sans-serif" font-size="10">rabbitmq</text>
<text x="567.0" y="342" text-anchor="middle" font-family="sans-serif" font-size="9" fill="#555">dbdelay-rmq 25</text>
<rect x="629.0" y="299.8" width="56.0" height="8.2" fill="#2f6f73"/>
<text x="657.0" y="291.8" text-anchor="middle" font-family="sans-serif" font-size="11">4.05</text>
<text x="657.0" y="326" text-anchor="middle" font-family="sans-serif" font-size="10">sqs</text>
<text x="657.0" y="342" text-anchor="middle" font-family="sans-serif" font-size="9" fill="#555">dbdelay-sqs-0</text>
<rect x="719.0" y="98.0" width="56.0" height="210.0" fill="#2f6f73"/>
<text x="747.0" y="90.0" text-anchor="middle" font-family="sans-serif" font-size="11">104.05</text>
<text x="747.0" y="326" text-anchor="middle" font-family="sans-serif" font-size="10">sqs</text>
<text x="747.0" y="342" text-anchor="middle" font-family="sans-serif" font-size="9" fill="#555">dbdelay-sqs-100</text>
<rect x="809.0" y="243.4" width="56.0" height="64.6" fill="#2f6f73"/>
<text x="837.0" y="235.4" text-anchor="middle" font-family="sans-serif" font-size="11">32.00</text>
<text x="837.0" y="326" text-anchor="middle" font-family="sans-serif" font-size="10">sqs</text>
<text x="837.0" y="342" text-anchor="middle" font-family="sans-serif" font-size="9" fill="#555">dbdelay-sqs-25</text>
</svg>
